<svg id="balanca" xmlns="http://www.w3.org/2000/svg" width="28" height="28" viewBox="0 0 28 28">
  <path id="Caminho_41" data-name="Caminho 41" d="M25.539,0H2.461A2.464,2.464,0,0,0,0,2.461V25.539A2.464,2.464,0,0,0,2.461,28H25.539A2.464,2.464,0,0,0,28,25.539V2.461A2.464,2.464,0,0,0,25.539,0Zm.82,25.539a.821.821,0,0,1-.82.82H2.461a.821.821,0,0,1-.82-.82V2.461a.821.821,0,0,1,.82-.82H25.539a.821.821,0,0,1,.82.82Zm0,0" transform="translate(0 0)" fill="#57a1ac"/>
  <path id="Caminho_42" data-name="Caminho 42" d="M96.25,65.153a15.771,15.771,0,0,0-18.922,0,.82.82,0,0,0-.164,1.149l4.33,5.761a.82.82,0,0,0,1.148.163,6.912,6.912,0,0,1,8.292,0,.82.82,0,0,0,1.148-.163l4.33-5.761a.821.821,0,0,0-.163-1.149Zm-5.009,5.3a8.456,8.456,0,0,0-3.632-1.21v-2.5a.82.82,0,0,0-1.641,0v2.5a8.456,8.456,0,0,0-3.632,1.21l-3.354-4.462a14.135,14.135,0,0,1,15.611,0Zm0,0" transform="translate(-72.789 -58.609)" fill="#57a1ac"/>
</svg>
