<svg xmlns="http://www.w3.org/2000/svg" width="26.661" height="31.994" viewBox="0 0 26.661 31.994">
  <g id="calories" transform="translate(-32)">
    <path id="Caminho_43" data-name="Caminho 43" d="M250.133,376a2.133,2.133,0,1,0,2.133,2.133A2.133,2.133,0,0,0,250.133,376Zm0,3.2a1.066,1.066,0,1,1,1.066-1.066A1.066,1.066,0,0,1,250.133,379.2Zm0,0" transform="translate(-201.603 -350.938)" fill="#57a1ac"/>
    <path id="Caminho_44" data-name="Caminho 44" d="M330.133,296A2.133,2.133,0,0,0,328,298.133v5.332a2.133,2.133,0,1,0,4.266,0v-5.332A2.133,2.133,0,0,0,330.133,296Zm1.066,7.465a1.066,1.066,0,1,1-2.133,0v-5.332a1.066,1.066,0,0,1,2.133,0Zm0,0" transform="translate(-276.271 -276.271)" fill="#57a1ac"/>
    <path id="Caminho_45" data-name="Caminho 45" d="M250.133,296a2.133,2.133,0,1,0,2.133,2.133A2.133,2.133,0,0,0,250.133,296Zm0,3.2a1.066,1.066,0,1,1,1.066-1.066A1.066,1.066,0,0,1,250.133,299.2Zm0,0" transform="translate(-201.603 -276.271)" fill="#57a1ac"/>
    <path id="Caminho_46" data-name="Caminho 46" d="M250.133,216a2.133,2.133,0,1,0,2.133,2.133A2.133,2.133,0,0,0,250.133,216Zm0,3.2a1.066,1.066,0,1,1,1.066-1.066A1.066,1.066,0,0,1,250.133,219.2Zm0,0" transform="translate(-201.603 -201.603)" fill="#57a1ac"/>
    <path id="Caminho_47" data-name="Caminho 47" d="M170.133,216a2.133,2.133,0,1,0,2.133,2.133A2.133,2.133,0,0,0,170.133,216Zm0,3.2a1.066,1.066,0,1,1,1.066-1.066A1.067,1.067,0,0,1,170.133,219.2Zm0,0" transform="translate(-126.935 -201.603)" fill="#57a1ac"/>
    <path id="Caminho_48" data-name="Caminho 48" d="M330.133,216a2.133,2.133,0,1,0,2.133,2.133A2.133,2.133,0,0,0,330.133,216Zm0,3.2a1.066,1.066,0,1,1,1.066-1.066A1.067,1.067,0,0,1,330.133,219.2Zm0,0" transform="translate(-276.271 -201.603)" fill="#57a1ac"/>
    <path id="Caminho_49" data-name="Caminho 49" d="M250.133,136a2.133,2.133,0,1,0,2.133,2.133A2.133,2.133,0,0,0,250.133,136Zm0,3.2a1.066,1.066,0,1,1,1.066-1.066A1.066,1.066,0,0,1,250.133,139.2Zm0,0" transform="translate(-201.603 -126.935)" fill="#57a1ac"/>
    <path id="Caminho_50" data-name="Caminho 50" d="M330.133,136a2.133,2.133,0,1,0,2.133,2.133A2.133,2.133,0,0,0,330.133,136Zm0,3.2a1.066,1.066,0,1,1,1.066-1.066A1.066,1.066,0,0,1,330.133,139.2Zm0,0" transform="translate(-276.271 -126.935)" fill="#57a1ac"/>
    <path id="Caminho_51" data-name="Caminho 51" d="M90.133,140.266h5.332a2.133,2.133,0,0,0,0-4.266H90.133a2.133,2.133,0,1,0,0,4.266Zm0-3.2h5.332a1.066,1.066,0,1,1,0,2.133H90.133a1.066,1.066,0,1,1,0-2.133Zm0,0" transform="translate(-52.268 -126.935)" fill="#57a1ac"/>
    <path id="Caminho_52" data-name="Caminho 52" d="M88.533,45.332h19.2a.533.533,0,0,0,.533-.533V40.533a.533.533,0,0,0-.533-.533h-19.2a.533.533,0,0,0-.533.533V44.8A.533.533,0,0,0,88.533,45.332Zm.533-4.266H107.2v3.2H89.066Zm0,0" transform="translate(-52.268 -37.334)" fill="#57a1ac"/>
    <path id="Caminho_53" data-name="Caminho 53" d="M58.661,29.861V2.133A2.133,2.133,0,0,0,56.528,0H35.2a2.133,2.133,0,0,0-2.133,2.133V21.787a3.878,3.878,0,0,0-.59.862A4.538,4.538,0,0,0,32,24.669a7.279,7.279,0,0,0,.646,3.009l1.188,2.641a2.842,2.842,0,0,0,3.489,1.529l1.076-.359,1.077.359a2.851,2.851,0,0,0,.523.115v.03h16.53a2.133,2.133,0,0,0,2.133-2.133ZM35.2,1.066H56.528a1.067,1.067,0,0,1,1.066,1.066V29.861a1.067,1.067,0,0,1-1.066,1.066H42.584a2.85,2.85,0,0,0,.38-.608l1.188-2.641a7.279,7.279,0,0,0,.646-3.009,4.538,4.538,0,0,0-.477-2.019,3.82,3.82,0,0,0-5.368-1.587,5.348,5.348,0,0,1,.2-1.126v0A5.334,5.334,0,0,1,40.5,17.693l-.754-.754a6.449,6.449,0,0,0-.927,1.183,3.64,3.64,0,0,0-3.258-2.03.533.533,0,0,0-.533.533A3.642,3.642,0,0,0,37.992,20.2a6.42,6.42,0,0,0-.106.892,3.779,3.779,0,0,0-3.753-.119V2.133A1.067,1.067,0,0,1,35.2,1.066Zm2.861,18.058a2.582,2.582,0,0,1-1.9-1.9A2.582,2.582,0,0,1,38.061,19.124Zm.506,11.3a.536.536,0,0,0-.337,0l-1.244.415a1.806,1.806,0,0,1-2.179-.954L33.618,27.24a6.234,6.234,0,0,1-.552-2.572,3.461,3.461,0,0,1,.364-1.542,2.768,2.768,0,0,1,4.206-.924l.427.343a.533.533,0,0,0,.667,0l.426-.343a2.769,2.769,0,0,1,4.206.924,3.462,3.462,0,0,1,.368,1.542,6.23,6.23,0,0,1-.552,2.572L41.99,29.881a1.773,1.773,0,0,1-2.179.955Zm0,0" transform="translate(0)" fill="#57a1ac"/>
    <path id="Caminho_54" data-name="Caminho 54" d="M344,72h1.066v1.066H344Zm0,0" transform="translate(-291.204 -67.201)" fill="#57a1ac"/>
    <path id="Caminho_55" data-name="Caminho 55" d="M312,72h1.066v1.066H312Zm0,0" transform="translate(-261.337 -67.201)" fill="#57a1ac"/>
    <path id="Caminho_56" data-name="Caminho 56" d="M280,72h1.066v1.066H280Zm0,0" transform="translate(-231.47 -67.201)" fill="#57a1ac"/>
  </g>
</svg>
