<svg xmlns="http://www.w3.org/2000/svg" width="21.001" height="21" viewBox="0 0 21.001 21">
  <path id="config" d="M20.578,12.1A3.575,3.575,0,0,1,22.6,9.046a11.164,11.164,0,0,0-.865-2.09,3.378,3.378,0,0,1-3.389-1.1,3.266,3.266,0,0,1-.854-3.389A10.914,10.914,0,0,0,15.4,1.6a3.958,3.958,0,0,1-3.3,2.019A3.96,3.96,0,0,1,8.8,1.6a10.87,10.87,0,0,0-2.089.864,3.261,3.261,0,0,1-.855,3.389,3.376,3.376,0,0,1-3.389,1.1A11,11,0,0,0,1.6,9.046,3.574,3.574,0,0,1,3.619,12.1,3.962,3.962,0,0,1,1.6,15.4a11.111,11.111,0,0,0,.864,2.09,3.265,3.265,0,0,1,3.389.852,3.269,3.269,0,0,1,.855,3.389A11.051,11.051,0,0,0,8.8,22.6a3.953,3.953,0,0,1,3.3-2.021A3.959,3.959,0,0,1,15.4,22.6a11.2,11.2,0,0,0,2.09-.866,3.266,3.266,0,0,1,.854-3.389,3.388,3.388,0,0,1,3.389-1.1,11.013,11.013,0,0,0,.865-2.09A3.575,3.575,0,0,1,20.578,12.1ZM12.1,16.664A4.566,4.566,0,1,1,16.664,12.1,4.565,4.565,0,0,1,12.1,16.664Z" transform="translate(-1.6 -1.6)" fill="#57a1ac"/>
</svg>
