<svg xmlns="http://www.w3.org/2000/svg" width="31.786" height="31.786" viewBox="0 0 31.786 31.786">
  <g id="imc-metric" transform="translate(-2 -1.999)">
    <path id="Caminho_72" data-name="Caminho 72" d="M32.2,6.767h-.572a3.7,3.7,0,0,0-7.332,0H23.164a5.3,5.3,0,0,0-10.542,0H11.493a3.7,3.7,0,0,0-7.332,0H3.589A1.594,1.594,0,0,0,2,8.357V32.2a1.594,1.594,0,0,0,1.589,1.589H32.2A1.594,1.594,0,0,0,33.786,32.2V8.357A1.594,1.594,0,0,0,32.2,6.767Zm-6.564-.715L27.619,7.7l.678-.816L26.311,5.236a2.692,2.692,0,1,1-.678.816Zm-7.74-2.993a4.2,4.2,0,0,1,2.6.9L17.517,6.921l.752.752L21.236,4.7a4.233,4.233,0,1,1-3.343-1.642ZM7.827,4.648a2.691,2.691,0,0,1,1,.2L7.388,7.006l.879.583L9.708,5.432a2.649,2.649,0,1,1-1.881-.784ZM32.726,32.2a.53.53,0,0,1-.53.53H3.589a.53.53,0,0,1-.53-.53V8.357a.53.53,0,0,1,.53-.53h.572a3.7,3.7,0,0,0,7.332,0h1.128a5.3,5.3,0,0,0,10.542,0h1.128a3.7,3.7,0,0,0,7.332,0H32.2a.53.53,0,0,1,.53.53Z" transform="translate(0)" fill="#57a1ac"/>
    <path id="Caminho_73" data-name="Caminho 73" d="M24.006,24a9.006,9.006,0,1,0,9.006,9.006A9.006,9.006,0,0,0,24.006,24Zm0,16.952a7.946,7.946,0,1,1,7.946-7.946,7.946,7.946,0,0,1-7.946,7.946Z" transform="translate(-6.113 -10.346)" fill="#57a1ac"/>
    <path id="Caminho_74" data-name="Caminho 74" d="M32.774,34.887a6.887,6.887,0,1,0-13.774,0h1.06a5.827,5.827,0,1,1,11.655,0Z" transform="translate(-7.994 -12.227)" fill="#57a1ac"/>
    <path id="Caminho_75" data-name="Caminho 75" d="M34.036,33.686a.53.53,0,0,0-.673.117c-4.058,4.906-4.106,4.985-4.143,5.049a1.586,1.586,0,0,0,2.744,1.589A.535.535,0,0,0,32,40.361l2.267-6.034A.53.53,0,0,0,34.036,33.686Zm-3.009,6.251a.525.525,0,0,1-.964-.291.557.557,0,0,1,.069-.254c.148-.191,1.028-1.256,2.029-2.469Z" transform="translate(-12.7 -14.866)" fill="#57a1ac"/>
    <path id="Caminho_76" data-name="Caminho 76" d="M35,49h3.179v1.06H35Z" transform="translate(-15.518 -22.102)" fill="#57a1ac"/>
    <path id="Caminho_77" data-name="Caminho 77" d="M23,49h3.179v1.06H23Z" transform="translate(-9.875 -22.102)" fill="#57a1ac"/>
    <path id="Caminho_78" data-name="Caminho 78" d="M19,43h1.06v1.06H19Z" transform="translate(-7.994 -19.28)" fill="#57a1ac"/>
    <path id="Caminho_79" data-name="Caminho 79" d="M43,43h1.06v1.06H43Z" transform="translate(-19.28 -19.28)" fill="#57a1ac"/>
    <path id="Caminho_80" data-name="Caminho 80" d="M46,52h4.238v1.06H46Z" transform="translate(-20.691 -23.513)" fill="#57a1ac"/>
    <path id="Caminho_81" data-name="Caminho 81" d="M56,52h1.06v1.06H56Z" transform="translate(-25.393 -23.513)" fill="#57a1ac"/>
    <path id="Caminho_82" data-name="Caminho 82" d="M56,21h1.06v1.06H56Z" transform="translate(-25.393 -8.935)" fill="#57a1ac"/>
    <path id="Caminho_83" data-name="Caminho 83" d="M46,56h2.119v1.06H46Z" transform="translate(-20.691 -25.394)" fill="#57a1ac"/>
    <path id="Caminho_84" data-name="Caminho 84" d="M52,56h3.179v1.06H52Z" transform="translate(-23.512 -25.394)" fill="#57a1ac"/>
    <path id="Caminho_85" data-name="Caminho 85" d="M10,52h4.238v1.06H10Z" transform="translate(-3.762 -23.513)" fill="#57a1ac"/>
    <path id="Caminho_86" data-name="Caminho 86" d="M6,52H7.06v1.06H6Z" transform="translate(-1.881 -23.513)" fill="#57a1ac"/>
    <path id="Caminho_87" data-name="Caminho 87" d="M14,56h2.119v1.06H14Z" transform="translate(-5.643 -25.394)" fill="#57a1ac"/>
    <path id="Caminho_88" data-name="Caminho 88" d="M6,56H9.179v1.06H6Z" transform="translate(-1.881 -25.394)" fill="#57a1ac"/>
    <path id="Caminho_89" data-name="Caminho 89" d="M46,21h4.238v1.06H46Z" transform="translate(-20.691 -8.935)" fill="#57a1ac"/>
    <path id="Caminho_90" data-name="Caminho 90" d="M46,25h2.119v1.06H46Z" transform="translate(-20.691 -10.816)" fill="#57a1ac"/>
    <path id="Caminho_91" data-name="Caminho 91" d="M52,25h3.179v1.06H52Z" transform="translate(-23.512 -10.816)" fill="#57a1ac"/>
    <path id="Caminho_92" data-name="Caminho 92" d="M10,21h4.238v1.06H10Z" transform="translate(-3.762 -8.935)" fill="#57a1ac"/>
    <path id="Caminho_93" data-name="Caminho 93" d="M6,21H7.06v1.06H6Z" transform="translate(-1.881 -8.935)" fill="#57a1ac"/>
    <path id="Caminho_94" data-name="Caminho 94" d="M14,25h2.119v1.06H14Z" transform="translate(-5.643 -10.816)" fill="#57a1ac"/>
    <path id="Caminho_95" data-name="Caminho 95" d="M6,25H9.179v1.06H6Z" transform="translate(-1.881 -10.816)" fill="#57a1ac"/>
  </g>
</svg>
