<svg xmlns="http://www.w3.org/2000/svg" width="154.413" height="31.941" viewBox="0 0 154.413 31.941"><path d="M9.592-7.546H3.3V0H1.716V-15.4H3.3v6.314H9.592V-15.4h1.584V0H9.592Zm4-7.854h7.348v1.518H15.18v4.8h3.85l-.506,1.54H15.18V-1.43H20.9V0H13.6ZM29.128-4.972H24.552L23.1,0H21.384l4.532-15.4h1.826L32.428,0H30.646ZM24.97-6.6h3.762l-1.914-6.248Zm8.338-8.8h1.584V-1.43H41.25V0H33.308Zm8.932,1.5H38.676v-1.5H47.52v1.5h-3.7V0H42.24ZM56.056-7.546H49.764V0H48.18V-15.4h1.584v6.314h6.292V-15.4H57.64V0H56.056ZM66.968-13.9H63.4v-1.5h8.844v1.5h-3.7V0H66.968ZM79.112-5.1a6.452,6.452,0,0,1-.7.044H74.492V0H72.908V-15.4h5.346a3.753,3.753,0,0,1,3.157,1.342,5.569,5.569,0,0,1,1.045,3.52,11.242,11.242,0,0,1-.341,2.915A3.359,3.359,0,0,1,80.586-5.61L82.478,0H80.85Zm-.9-1.5a2.269,2.269,0,0,0,1.76-.627,2.821,2.821,0,0,0,.715-1.43,10.415,10.415,0,0,0,.143-1.815q0-3.388-2.816-3.388h-3.52V-6.6ZM90.618-4.972H86.042L84.59,0H82.874l4.532-15.4h1.826L93.918,0H92.136ZM86.46-6.6h3.762l-1.914-6.248ZM101.2-.506A10.546,10.546,0,0,1,97.548.22a4.618,4.618,0,0,1-3.1-1.012,4.026,4.026,0,0,1-1.188-3.234v-7.062a5.366,5.366,0,0,1,.473-2.53,3.955,3.955,0,0,1,1.441-1.452,4.745,4.745,0,0,1,2.376-.55,6.583,6.583,0,0,1,3.1.726l-.462,1.254a6.631,6.631,0,0,0-2.31-.44,3.705,3.705,0,0,0-2.123.616,2.435,2.435,0,0,0-.913,2.178V-4.07A2.62,2.62,0,0,0,95.612-2a3.177,3.177,0,0,0,2.178.682,9.73,9.73,0,0,0,3.1-.594Zm3.256-6.644-.77,1.232V0h-1.65V-15.422h1.65V-8.69l4.51-6.732h1.87l-4.62,6.82L111.122,0h-1.936Z" transform="translate(43.291 23.476)" fill="#227784"/><rect width="27.457" height="16.829" rx="8.414" transform="translate(7.516 19.415) rotate(-45)" fill="#227784"/><rect width="27.457" height="16.829" rx="8.414" transform="translate(19.415 31.941) rotate(-135)" fill="#6eb4bf"/></svg>